# xmcd CD database file
# Copyright (C) 1997 Ti Kan
#
# Track frame offsets:
#  150
#  15362
#  31235
#  46712
#  61372
#  76217
#  95717
#  114732
#  134970
#  147935
#
# Disc length: 2271 seconds
#
# Revision: 1
# Processed by: cddbd v1.4b41PL1 Copyright (c) Steve Scherf et al.
# Submitted via: CDWizzard Release:4.22
#
DISCID=8408dd0a
DTITLE=Russell Smith - This Little Town
DYEAR=1900
DGENRE=
TTITLE0=I Wonder What She's Doing Tonight
TTITLE1=Writing On The Wall
TTITLE2=When The Night Comes To Call
TTITLE3=Anger And Tears
TTITLE4=Jenny Hold On
TTITLE5=This Little Town
TTITLE6=Blue Collar Blues
TTITLE7=The Colorado Side
TTITLE8=Sunday Best
TTITLE9=An American Tragedy
EXTD=
EXTT0=
EXTT1=
EXTT2=
EXTT3=
EXTT4=
EXTT5=
EXTT6=
EXTT7=
EXTT8=
EXTT9=
PLAYORDER=
